HIERARCHY
ROOT Hips
{
	OFFSET -0.001795 -0.223333 0.028219
	CHANNELS 6 Xposition Yposition Zposition Zrotation Yrotation Xrotation 
	JOINT LeftUpLeg
	{
		OFFSET 0.069520 -0.091406 -0.006815
		CHANNELS 3 Zrotation Yrotation Xrotation
		JOINT LeftLeg
		{
			OFFSET 0.034277 -0.375199 -0.004496
			CHANNELS 3 Zrotation Yrotation Xrotation
			JOINT LeftFoot
			{
				OFFSET -0.013596 -0.397961 -0.043693
				CHANNELS 3 Zrotation Yrotation Xrotation
				JOINT LeftToe
				{
					OFFSET 0.026358 -0.055791 0.119288
					CHANNELS 3 Zrotation Yrotation Xrotation
					End Site
					{
						OFFSET 0.000000 0.000000 0.000000
					}
				}
			}
		}
	}
	JOINT RightUpLeg
	{
		OFFSET -0.067670 -0.090522 -0.004320
		CHANNELS 3 Zrotation Yrotation Xrotation
		JOINT RightLeg
		{
			OFFSET -0.038290 -0.382569 -0.008850
			CHANNELS 3 Zrotation Yrotation Xrotation
			JOINT RightFoot
			{
				OFFSET 0.015774 -0.398415 -0.042312
				CHANNELS 3 Zrotation Yrotation Xrotation
				JOINT RightToe
				{
					OFFSET -0.025372 -0.048144 0.123348
					CHANNELS 3 Zrotation Yrotation Xrotation
					End Site
					{
						OFFSET 0.000000 0.000000 0.000000
					}
				}
			}
		}
	}
	JOINT Spine
	{
		OFFSET -0.002533 0.108963 -0.026696
		CHANNELS 3 Zrotation Yrotation Xrotation
		JOINT Spine1
		{
			OFFSET 0.005487 0.135180 0.001092
			CHANNELS 3 Zrotation Yrotation Xrotation
			JOINT Spine2
			{
				OFFSET 0.001457 0.052922 0.025425
				CHANNELS 3 Zrotation Yrotation Xrotation
				JOINT Neck
				{
					OFFSET -0.002778 0.213870 -0.042857
					CHANNELS 3 Zrotation Yrotation Xrotation
					JOINT Head
					{
						OFFSET 0.005152 0.064970 0.051349
						CHANNELS 3 Zrotation Yrotation Xrotation
						End Site
						{
							OFFSET 0.000000 0.000000 0.000000
						}
					}
				}
				JOINT LeftShoulder
				{
					OFFSET 0.078845 0.121749 -0.034090
					CHANNELS 3 Zrotation Yrotation Xrotation
					JOINT LeftArm
					{
						OFFSET 0.090977 0.030469 -0.008868
						CHANNELS 3 Zrotation Yrotation Xrotation
						JOINT LeftForeArm
						{
							OFFSET 0.259612 -0.012772 -0.027456
							CHANNELS 3 Zrotation Yrotation Xrotation
							JOINT LeftHand
							{
								OFFSET 0.249234 0.008986 -0.001171
								CHANNELS 3 Zrotation Yrotation Xrotation
								End Site
								{
									OFFSET 0.000000 0.000000 0.000000
								}
							}
						}
					}
				}
				JOINT RightShoulder
				{
					OFFSET -0.081759 0.118833 -0.038615
					CHANNELS 3 Zrotation Yrotation Xrotation
					JOINT RightArm
					{
						OFFSET -0.096012 0.032551 -0.009143
						CHANNELS 3 Zrotation Yrotation Xrotation
						JOINT RightForeArm
						{
							OFFSET -0.253742 -0.013329 -0.021401
							CHANNELS 3 Zrotation Yrotation Xrotation
							JOINT RightHand
							{
								OFFSET -0.255298 0.007772 -0.005559
								CHANNELS 3 Zrotation Yrotation Xrotation
								End Site
								{
									OFFSET 0.000000 0.000000 0.000000
								}
							}
						}
					}
				}
			}
		}
	}
}
MOTION
Frames: 5
Frame Time: 0.050000
0.000000 0.939507 0.000000 -0.320702 -13.987710 3.298802 7.072925 -0.107621 -11.714374 -4.115400 0.704752 5.995199 8.101994 16.290601 12.019868 0.000000 0.000000 0.000000 0.470716 0.230371 -2.724163 4.708273 -0.297722 3.592687 -7.802634 -18.788710 3.993018 0.000000 0.000000 0.000000 4.703661 -0.369910 3.760021 -6.041707 2.634428 -3.696159 0.727232 6.686212 13.896853 5.434767 -1.945052 -20.490231 0.000000 0.000000 0.000000 -26.314743 -2.088542 -0.445301 -47.037924 4.785034 -8.194679 -96.906822 -57.551604 69.111440 0.000000 0.000000 0.000000 26.419611 -2.249927 -4.164558 54.419400 -11.287034 -10.952684 91.899901 51.964546 55.647099 0.000000 0.000000 0.000000 
-0.005936 0.939442 -0.002717 -1.088173 -13.503649 2.780530 8.523008 0.074167 -11.022990 -5.005190 0.875978 6.052452 8.114148 16.419178 11.062671 0.000000 0.000000 0.000000 2.244291 -0.015593 -0.923310 3.939402 -0.262386 1.602735 -8.301079 -19.905864 5.226563 0.000000 0.000000 0.000000 5.879355 -0.384438 3.503819 -6.262380 2.879495 -1.954451 0.859992 6.954528 12.964259 5.068466 -1.661402 -20.151992 0.000000 0.000000 0.000000 -26.981166 0.295417 -2.328823 -44.853303 6.879943 -8.360874 -103.843500 -52.188230 69.098907 0.000000 0.000000 0.000000 24.665904 -3.553491 -4.486469 56.129124 -13.498198 -12.336509 98.876655 48.396327 57.777058 0.000000 0.000000 0.000000 
-0.011002 0.940118 -0.005127 -0.550866 -12.248140 2.859083 8.028184 -0.031664 -11.058219 -4.673083 0.774329 5.728395 7.906185 16.208788 10.108267 0.000000 0.000000 0.000000 2.180162 0.038010 -1.347501 3.327325 -0.226609 1.415323 -8.538742 -20.293763 4.422665 0.000000 0.000000 0.000000 6.017187 -0.350533 2.988222 -5.399711 2.511516 -1.427341 -1.164447 6.778787 12.681149 5.945719 -2.512282 -16.866784 0.000000 0.000000 0.000000 -25.804534 1.014173 -2.935919 -44.420356 10.820784 -9.522832 -105.812516 -49.786680 67.682551 0.000000 0.000000 0.000000 25.042500 -3.895318 -4.488985 55.075957 -15.950558 -13.175053 103.021313 46.259937 59.161170 0.000000 0.000000 0.000000 
-0.015622 0.939570 -0.006822 -0.384704 -13.437909 2.580058 8.682466 0.094133 -11.130371 -5.008372 0.832695 4.827166 7.966558 16.121305 12.305992 0.000000 0.000000 0.000000 2.098942 0.048153 -1.441650 4.212810 -0.277250 2.310974 -8.849723 -20.774509 4.053556 0.000000 0.000000 0.000000 6.133565 -0.330206 2.831504 -5.795695 2.679235 -1.698426 -0.444705 7.847422 13.025863 5.867966 -2.340311 -17.494327 0.000000 0.000000 0.000000 -26.534306 2.598463 -4.123253 -43.148263 15.637252 -10.757824 -110.745851 -44.268448 65.347929 0.000000 0.000000 0.000000 25.233776 -5.106998 -5.161330 54.651518 -17.245953 -13.652436 109.971067 43.067803 61.624388 0.000000 0.000000 0.000000 
-0.019690 0.939656 -0.007958 -0.168463 -13.509616 1.949558 8.322277 0.062547 -10.876848 -4.433737 0.716425 4.481347 8.026866 16.203421 12.343764 0.000000 0.000000 0.000000 1.978710 0.067982 -1.551264 4.023602 -0.251517 2.962713 -8.608491 -20.263146 3.719493 0.000000 0.000000 0.000000 6.432053 -0.379242 3.432460 -5.876134 2.726593 -1.634637 -0.944656 7.331225 13.405163 5.781505 -2.301763 -17.932372 0.000000 0.000000 0.000000 -25.636029 3.613397 -4.432065 -44.027727 18.939513 -12.170689 -112.494072 -42.674988 65.263483 0.000000 0.000000 0.000000 24.958922 -5.126150 -5.279559 54.262012 -17.175877 -13.533834 112.897346 40.695695 60.937649 0.000000 0.000000 0.000000 
